<svg xmlns="http://www.w3.org/2000/svg" xmlns:xlink="http://www.w3.org/1999/xlink" width="512" zoomAndPan="magnify" viewBox="0 0 384 383.999986" height="512" preserveAspectRatio="xMidYMid meet" version="1.0"><defs><clipPath id="7eedbacab4"><path d="M 192 0 C 85.960938 0 0 85.960938 0 192 C 0 298.039062 85.960938 384 192 384 C 298.039062 384 384 298.039062 384 192 C 384 85.960938 298.039062 0 192 0 " clip-rule="nonzero"/></clipPath><clipPath id="1cc0cbef89"><path d="M 93 18.921875 L 204 18.921875 L 204 337 L 93 337 Z M 93 18.921875 " clip-rule="nonzero"/></clipPath><clipPath id="08f408939f"><path d="M 110 193 L 353.933594 193 L 353.933594 345.921875 L 110 345.921875 Z M 110 193 " clip-rule="nonzero"/></clipPath></defs><rect x="-38.4" width="460.8" fill="#ffffff" y="-38.399999" height="460.799983" fill-opacity="1"/><rect x="-38.4" width="460.8" fill="#ffffff" y="-38.399999" height="460.799983" fill-opacity="1"/><rect x="-38.4" width="460.8" fill="#ffffff" y="-38.399999" height="460.799983" fill-opacity="1"/><path fill="#db343c" d="M 192 0 C 85.960938 0 0 85.960938 0 192 C 0 298.039062 85.960938 384 192 384 C 298.039062 384 384 298.039062 384 192 C 384 85.960938 298.039062 0 192 0 " fill-opacity="1" fill-rule="nonzero"/><g clip-path="url(#7eedbacab4)"><path stroke-linecap="butt" transform="matrix(0.75, 0, 0, 0.75, 0.0000072, 0)" fill="none" stroke-linejoin="miter" d="M 256.000011 0 C 114.614583 0 -0.0000096 114.614592 -0.0000096 256.00002 C -0.0000096 397.385448 114.614583 512.000041 256.000011 512.000041 C 397.385439 512.000041 512.000031 397.385448 512.000031 256.00002 C 512.000031 114.614592 397.385439 0 256.000011 0 " stroke="#ff914d" stroke-width="16" stroke-opacity="1" stroke-miterlimit="4"/></g><g clip-path="url(#1cc0cbef89)"><path fill="#f5f5f5" d="M 200.417969 71.5 C 199.648438 64.234375 198.820312 56.886719 196.226562 50.054688 C 192.238281 39.53125 184.085938 30.175781 183.917969 18.925781 C 182.601562 26.65625 155.371094 51.914062 145.488281 116.507812 C 145.488281 117.105469 144.894531 117.703125 144.296875 117.703125 C 140.714844 117.105469 140.117188 110.539062 136.535156 112.332031 C 134.746094 117.105469 134.746094 121.878906 132.953125 126.652344 C 127.585938 140.375 120.425781 152.902344 115.648438 166.625 C 110.875 180.941406 109.679688 196.453125 117.84375 209.285156 C 112.597656 202.9375 108.832031 195.386719 106.90625 187.386719 C 102.425781 191.511719 99.980469 197.425781 99.148438 203.375 C 97.417969 215.746094 101.808594 228.960938 105.550781 240.609375 C 107.507812 246.710938 109.730469 252.726562 112.214844 258.640625 C 113.808594 262.429688 117.246094 271.570312 122.324219 271.992188 C 122.324219 271.992188 124.058594 271.992188 124.058594 270.261719 C 144.601562 226.488281 174.3125 142.066406 182.964844 48.570312 C 183.835938 149.582031 144.601562 242.636719 130 274.449219 C 126.058594 286.828125 119.699219 298.269531 113.378906 309.617188 C 109.269531 316.996094 104.777344 324.773438 96.921875 328.292969 C 95.742188 328.820312 94.664062 329.597656 94.007812 330.714844 C 91.445312 335.089844 97.070312 337.648438 100.359375 335.910156 C 103.109375 334.460938 104.53125 331.40625 105.964844 328.648438 C 124.058594 308.363281 129.253906 273.726562 156.976562 275.457031 C 163.816406 272.464844 168.554688 251.867188 171.492188 245.007812 C 184.386719 214.933594 197.410156 184.40625 201.859375 151.988281 C 205.511719 125.335938 203.242188 98.253906 200.417969 71.5 " fill-opacity="1" fill-rule="nonzero"/></g><g clip-path="url(#08f408939f)"><path fill="#f5f5f5" d="M 112.621094 333.660156 C 112.40625 334.554688 112.390625 335.417969 112.667969 336.167969 C 112.921875 336.921875 113.40625 337.566406 113.976562 338.125 C 115.164062 339.234375 116.804688 339.890625 118.386719 340.171875 C 119.980469 340.421875 121.574219 340.257812 122.667969 339.644531 C 122.8125 339.582031 122.933594 339.488281 123.0625 339.417969 C 123.195312 339.332031 123.375 339.195312 123.527344 339.09375 C 123.859375 338.886719 124.15625 338.621094 124.453125 338.371094 C 124.757812 338.125 125.023438 337.820312 125.308594 337.554688 C 125.578125 337.242188 125.859375 336.972656 126.113281 336.640625 C 127.144531 335.359375 128.042969 333.878906 128.902344 332.246094 C 129.753906 330.609375 130.5625 328.847656 131.457031 327.019531 C 131.90625 326.09375 132.351562 325.164062 132.875 324.191406 C 133.394531 323.210938 133.96875 322.261719 134.5625 321.3125 C 135.769531 319.441406 137.097656 317.617188 138.617188 315.914062 C 141.664062 312.53125 145.371094 309.4375 150.023438 307.496094 C 152.332031 306.519531 154.855469 305.886719 157.449219 305.644531 L 159.402344 305.554688 C 160.085938 305.558594 160.847656 305.582031 161.550781 305.679688 C 162.976562 305.847656 164.367188 306.183594 165.664062 306.664062 C 168.277344 307.601562 170.578125 309.058594 172.53125 310.835938 C 173.523438 311.714844 174.410156 312.695312 175.203125 313.753906 C 175.996094 314.8125 176.714844 315.941406 177.3125 317.152344 C 178.472656 319.582031 179.253906 322.351562 179.164062 325.3125 C 179.109375 326.785156 178.859375 328.289062 178.34375 329.707031 C 177.84375 331.125 177.109375 332.449219 176.230469 333.601562 L 175.789062 327.972656 C 175.839844 328.128906 175.917969 328.308594 176.21875 328.484375 C 176.503906 328.65625 176.984375 328.785156 177.535156 328.789062 C 178.089844 328.792969 178.703125 328.675781 179.269531 328.472656 C 179.84375 328.261719 180.316406 328.007812 180.917969 327.503906 C 182.050781 326.582031 183.0625 325.175781 183.929688 323.53125 C 184.816406 321.90625 185.582031 320.007812 186.410156 318.140625 C 188 314.386719 189.546875 310.621094 190.980469 306.820312 C 191.71875 304.921875 192.386719 303 193.09375 301.097656 L 195.089844 295.332031 L 196.609375 290.945312 L 198.722656 295.558594 C 198.820312 295.773438 198.871094 295.945312 199 296.027344 C 199.089844 296.144531 199.285156 296.207031 199.515625 296.292969 C 200.027344 296.429688 200.800781 296.359375 201.515625 296.117188 C 202.242188 295.882812 202.941406 295.480469 203.429688 294.988281 L 203.75 294.613281 C 203.832031 294.464844 203.910156 294.390625 204.011719 294.203125 C 204.21875 293.828125 204.414062 293.441406 204.597656 293.019531 C 205.316406 291.320312 205.769531 289.269531 206.734375 286.988281 C 207.226562 285.855469 207.894531 284.664062 208.839844 283.574219 C 209.789062 282.519531 210.941406 281.589844 212.214844 280.941406 C 213.480469 280.300781 214.796875 279.894531 216.078125 279.625 C 217.347656 279.382812 218.582031 279.257812 219.777344 279.191406 C 222.140625 279.089844 224.355469 279.179688 226.375 279.199219 C 226.886719 279.207031 227.363281 279.199219 227.839844 279.1875 L 229.199219 279.09375 C 229.644531 279.085938 230.097656 279 230.542969 278.9375 C 230.988281 278.859375 231.4375 278.839844 231.875 278.722656 C 233.648438 278.402344 235.375 277.867188 237.050781 277.230469 C 243.699219 274.546875 249.351562 269.527344 252.085938 263.332031 C 253.542969 260.117188 254.59375 255.984375 256.753906 251.414062 C 257.863281 249.113281 259.265625 246.910156 260.800781 244.933594 C 262.339844 242.941406 264.03125 241.144531 265.808594 239.519531 C 269.339844 236.25 273.160156 233.65625 276.910156 231.3125 C 280.691406 229.015625 284.554688 226.84375 288.570312 224.96875 C 296.546875 221.128906 304.960938 218.203125 313.558594 216.203125 C 322.144531 214.253906 330.214844 213.335938 337.339844 210.246094 C 339.078125 209.5 340.765625 208.574219 342.339844 207.472656 C 343.917969 206.371094 345.425781 205.140625 346.742188 203.71875 C 348.054688 202.292969 349.230469 200.71875 350.128906 198.964844 C 351.019531 197.214844 351.667969 195.296875 351.9375 193.246094 L 353.164062 193.214844 C 353.929688 197.617188 352.707031 202.394531 350.335938 206.34375 C 347.992188 210.355469 344.632812 213.707031 340.726562 216.332031 C 336.878906 218.921875 332.660156 220.75 328.535156 222.28125 C 324.394531 223.804688 320.3125 225.042969 316.472656 226.378906 C 308.8125 229.0625 301.425781 232.410156 294.335938 236.273438 C 292.566406 237.242188 290.828125 238.261719 289.082031 239.273438 C 287.351562 240.3125 285.632812 241.367188 283.941406 242.472656 C 280.535156 244.628906 277.371094 246.871094 274.613281 249.265625 C 273.25 250.480469 271.996094 251.730469 270.882812 253.035156 C 269.761719 254.351562 268.84375 255.703125 268.011719 257.160156 C 266.324219 260.140625 265.011719 264.195312 262.730469 268.578125 C 257.945312 277.597656 249.519531 284.164062 240.066406 286.648438 C 237.691406 287.222656 235.285156 287.671875 232.847656 287.769531 C 232.242188 287.832031 231.621094 287.785156 231.015625 287.792969 C 230.40625 287.78125 229.800781 287.796875 229.191406 287.730469 L 227.378906 287.574219 C 226.796875 287.503906 226.21875 287.421875 225.679688 287.335938 C 223.484375 286.988281 221.492188 286.578125 219.628906 286.367188 C 218.703125 286.269531 217.820312 286.21875 216.992188 286.246094 C 216.179688 286.289062 215.433594 286.40625 214.757812 286.609375 C 214.09375 286.816406 213.519531 287.15625 212.960938 287.578125 C 212.425781 288.007812 211.941406 288.617188 211.488281 289.375 C 210.554688 290.878906 209.867188 292.9375 208.714844 295.039062 C 208.4375 295.570312 208.113281 296.101562 207.75 296.621094 C 207.578125 296.882812 207.292969 297.207031 207.066406 297.484375 C 206.8125 297.75 206.539062 297.992188 206.273438 298.230469 C 205.160156 299.121094 203.9375 299.71875 202.628906 300.054688 C 201.316406 300.382812 199.898438 300.476562 198.371094 300.03125 C 197.617188 299.765625 196.816406 299.367188 196.210938 298.671875 C 195.875 298.355469 195.660156 297.964844 195.441406 297.574219 C 195.238281 297.179688 195.148438 296.773438 195.027344 296.371094 L 198.660156 296.597656 L 196.574219 302.332031 C 195.921875 304.257812 195.230469 306.167969 194.609375 308.105469 C 193.320312 311.960938 192.148438 315.859375 191.019531 319.773438 C 190.464844 321.730469 189.960938 323.695312 189.246094 325.8125 C 188.519531 327.894531 187.570312 330.128906 185.910156 332.175781 C 185.125 333.164062 184.003906 334.210938 182.78125 334.957031 C 181.566406 335.722656 180.230469 336.285156 178.773438 336.609375 C 177.316406 336.921875 175.722656 337.003906 174.042969 336.65625 C 172.375 336.316406 170.617188 335.464844 169.261719 334.148438 L 167.125 332.074219 L 168.820312 328.519531 C 169.308594 327.492188 169.421875 326.519531 169.292969 325.453125 C 169.132812 324.386719 168.703125 323.214844 168 322.101562 C 166.617188 319.84375 164.238281 317.914062 161.902344 317.078125 C 161.320312 316.851562 160.734375 316.738281 160.171875 316.652344 C 159.878906 316.597656 159.632812 316.589844 159.316406 316.574219 C 158.964844 316.585938 158.613281 316.589844 158.261719 316.589844 C 156.851562 316.671875 155.433594 317 154.011719 317.5 C 152.585938 317.992188 151.171875 318.738281 149.8125 319.65625 C 148.449219 320.570312 147.105469 321.613281 145.855469 322.820312 C 144.617188 324.039062 143.410156 325.335938 142.296875 326.738281 L 141.480469 327.8125 L 140.703125 328.910156 C 140.171875 329.648438 139.644531 330.476562 139.109375 331.300781 C 138.042969 332.972656 136.914062 334.734375 135.628906 336.496094 C 134.359375 338.261719 132.859375 340.03125 131.054688 341.601562 C 130.621094 342 130.113281 342.359375 129.644531 342.730469 C 129.128906 343.066406 128.636719 343.425781 128.089844 343.71875 C 127.546875 344.015625 127.015625 344.3125 126.4375 344.546875 C 126.140625 344.667969 125.894531 344.792969 125.566406 344.910156 C 125.230469 345.027344 124.898438 345.152344 124.558594 345.230469 C 121.832031 345.914062 119.210938 345.488281 116.992188 344.542969 C 114.773438 343.589844 112.832031 342.054688 111.546875 339.976562 C 110.917969 338.933594 110.488281 337.714844 110.492188 336.46875 C 110.453125 335.226562 110.878906 334.039062 111.511719 333.125 L 112.621094 333.660156 " fill-opacity="1" fill-rule="nonzero"/></g></svg>