<svg xmlns="http://www.w3.org/2000/svg" xmlns:xlink="http://www.w3.org/1999/xlink" width="200" zoomAndPan="magnify" viewBox="0 0 150 149.999998" height="200" preserveAspectRatio="xMidYMid meet" version="1.0"><defs><clipPath id="0d059876bb"><path d="M 75 0 C 33.578125 0 0 33.578125 0 75 C 0 116.421875 33.578125 150 75 150 C 116.421875 150 150 116.421875 150 75 C 150 33.578125 116.421875 0 75 0 " clip-rule="nonzero"/></clipPath><clipPath id="bc03713ca4"><path d="M 36 7.390625 L 80 7.390625 L 80 132 L 36 132 Z M 36 7.390625 " clip-rule="nonzero"/></clipPath><clipPath id="71cdae7e63"><path d="M 43 75 L 138.464844 75 L 138.464844 134.890625 L 43 134.890625 Z M 43 75 " clip-rule="nonzero"/></clipPath></defs><path fill="#db343c" d="M 75 0 C 33.578125 0 0 33.578125 0 75 C 0 116.421875 33.578125 150 75 150 C 116.421875 150 150 116.421875 150 75 C 150 33.578125 116.421875 0 75 0 " fill-opacity="1" fill-rule="nonzero"/><g clip-path="url(#0d059876bb)"><path stroke-linecap="butt" transform="matrix(0.75, 0, 0, 0.75, 0.00000125, 0.000002)" fill="none" stroke-linejoin="miter" d="M 100.000004 -0.00000266667 C 44.770834 -0.00000266667 -0.00000166667 44.770833 -0.00000166667 100.000003 C -0.00000166667 155.229173 44.770834 200.000009 100.000004 200.000009 C 155.229174 200.000009 200.00001 155.229173 200.00001 100.000003 C 200.00001 44.770833 155.229174 -0.00000266667 100.000004 -0.00000266667 " stroke="#ff914d" stroke-width="16" stroke-opacity="1" stroke-miterlimit="4"/></g><g clip-path="url(#bc03713ca4)"><path fill="#f5f5f5" d="M 78.375 27.890625 C 78.074219 25.058594 77.75 22.195312 76.734375 19.53125 C 75.171875 15.425781 71.984375 11.78125 71.914062 7.390625 C 71.402344 10.40625 60.742188 20.253906 56.871094 45.441406 C 56.871094 45.671875 56.640625 45.90625 56.40625 45.90625 C 55.003906 45.671875 54.769531 43.113281 53.367188 43.8125 C 52.667969 45.671875 52.667969 47.535156 51.964844 49.394531 C 49.863281 54.746094 47.0625 59.632812 45.191406 64.980469 C 43.324219 70.5625 42.855469 76.613281 46.050781 81.617188 C 43.996094 79.140625 42.523438 76.195312 41.769531 73.078125 C 40.015625 74.683594 39.058594 76.992188 38.734375 79.308594 C 38.054688 84.136719 39.773438 89.285156 41.238281 93.828125 C 42.003906 96.207031 42.875 98.554688 43.847656 100.859375 C 44.472656 102.335938 45.816406 105.902344 47.804688 106.066406 C 47.804688 106.066406 48.484375 106.066406 48.484375 105.390625 C 56.527344 88.324219 68.15625 55.40625 71.542969 18.949219 C 71.882812 58.335938 56.527344 94.621094 50.808594 107.023438 C 49.265625 111.851562 46.777344 116.3125 44.304688 120.734375 C 42.695312 123.613281 40.9375 126.644531 37.859375 128.015625 C 37.398438 128.222656 36.976562 128.527344 36.71875 128.960938 C 35.71875 130.667969 37.917969 131.664062 39.207031 130.988281 C 40.28125 130.421875 40.839844 129.230469 41.402344 128.15625 C 48.484375 120.246094 50.519531 106.742188 61.371094 107.417969 C 64.046875 106.25 65.902344 98.21875 67.050781 95.542969 C 72.101562 83.816406 77.199219 71.914062 78.9375 59.273438 C 80.371094 48.882812 79.480469 38.324219 78.375 27.890625 " fill-opacity="1" fill-rule="nonzero"/></g><g clip-path="url(#71cdae7e63)"><path fill="#f5f5f5" d="M 44.007812 130.109375 C 43.921875 130.457031 43.917969 130.796875 44.023438 131.089844 C 44.125 131.382812 44.3125 131.632812 44.539062 131.851562 C 45.003906 132.285156 45.644531 132.539062 46.261719 132.648438 C 46.886719 132.746094 47.511719 132.683594 47.941406 132.445312 C 47.996094 132.417969 48.042969 132.382812 48.09375 132.355469 C 48.144531 132.320312 48.214844 132.269531 48.277344 132.226562 C 48.40625 132.148438 48.523438 132.042969 48.636719 131.949219 C 48.757812 131.851562 48.863281 131.730469 48.972656 131.628906 C 49.078125 131.507812 49.1875 131.402344 49.289062 131.273438 C 49.691406 130.773438 50.042969 130.195312 50.378906 129.558594 C 50.714844 128.921875 51.03125 128.234375 51.378906 127.519531 C 51.554688 127.160156 51.730469 126.796875 51.9375 126.417969 C 52.136719 126.035156 52.363281 125.664062 52.59375 125.296875 C 53.070312 124.566406 53.589844 123.855469 54.183594 123.191406 C 55.375 121.871094 56.828125 120.664062 58.648438 119.910156 C 59.550781 119.527344 60.539062 119.28125 61.554688 119.1875 L 62.320312 119.152344 C 62.585938 119.152344 62.886719 119.164062 63.160156 119.199219 C 63.71875 119.265625 64.261719 119.398438 64.769531 119.585938 C 65.792969 119.949219 66.695312 120.519531 67.457031 121.210938 C 67.847656 121.554688 68.195312 121.9375 68.503906 122.347656 C 68.816406 122.761719 69.097656 123.199219 69.332031 123.671875 C 69.785156 124.621094 70.089844 125.699219 70.054688 126.855469 C 70.035156 127.429688 69.9375 128.015625 69.734375 128.570312 C 69.539062 129.121094 69.25 129.636719 68.90625 130.085938 L 68.734375 127.894531 C 68.753906 127.953125 68.785156 128.023438 68.902344 128.09375 C 69.015625 128.160156 69.203125 128.210938 69.417969 128.210938 C 69.632812 128.210938 69.875 128.167969 70.097656 128.085938 C 70.320312 128.003906 70.507812 127.90625 70.742188 127.710938 C 71.183594 127.351562 71.582031 126.800781 71.921875 126.160156 C 72.269531 125.527344 72.566406 124.785156 72.890625 124.058594 C 73.515625 122.59375 74.121094 121.128906 74.679688 119.644531 C 74.96875 118.90625 75.230469 118.15625 75.507812 117.414062 L 76.289062 115.164062 L 76.882812 113.457031 L 77.710938 115.253906 C 77.75 115.339844 77.769531 115.40625 77.820312 115.4375 C 77.855469 115.480469 77.929688 115.507812 78.023438 115.539062 C 78.222656 115.59375 78.523438 115.566406 78.804688 115.472656 C 79.089844 115.378906 79.363281 115.222656 79.554688 115.03125 L 79.679688 114.886719 C 79.710938 114.828125 79.742188 114.800781 79.78125 114.726562 C 79.863281 114.582031 79.941406 114.429688 80.011719 114.265625 C 80.292969 113.601562 80.46875 112.800781 80.847656 111.914062 C 81.039062 111.472656 81.300781 111.007812 81.671875 110.582031 C 82.042969 110.171875 82.492188 109.808594 82.992188 109.554688 C 83.488281 109.304688 84.003906 109.144531 84.503906 109.042969 C 85.003906 108.945312 85.484375 108.898438 85.953125 108.871094 C 86.878906 108.832031 87.746094 108.867188 88.535156 108.875 C 88.738281 108.878906 88.921875 108.875 89.109375 108.871094 L 89.640625 108.835938 C 89.816406 108.832031 89.992188 108.796875 90.167969 108.773438 C 90.34375 108.742188 90.519531 108.734375 90.691406 108.691406 C 91.382812 108.566406 92.058594 108.355469 92.714844 108.109375 C 95.316406 107.0625 97.53125 105.105469 98.601562 102.6875 C 99.171875 101.4375 99.582031 99.824219 100.429688 98.042969 C 100.863281 97.144531 101.410156 96.285156 102.011719 95.515625 C 102.613281 94.738281 103.277344 94.039062 103.972656 93.402344 C 105.355469 92.128906 106.851562 91.117188 108.320312 90.203125 C 109.796875 89.308594 111.3125 88.460938 112.882812 87.730469 C 116.003906 86.234375 119.296875 85.09375 122.664062 84.3125 C 126.027344 83.554688 129.183594 83.195312 131.976562 81.992188 C 132.65625 81.699219 133.316406 81.339844 133.933594 80.910156 C 134.546875 80.480469 135.140625 80 135.65625 79.445312 C 136.167969 78.890625 136.628906 78.273438 136.980469 77.59375 C 137.328125 76.910156 137.582031 76.160156 137.6875 75.363281 L 138.167969 75.351562 C 138.46875 77.066406 137.988281 78.929688 137.0625 80.46875 C 136.144531 82.03125 134.828125 83.339844 133.300781 84.363281 C 131.792969 85.375 130.140625 86.085938 128.527344 86.683594 C 126.90625 87.277344 125.308594 87.757812 123.804688 88.28125 C 120.808594 89.328125 117.914062 90.632812 115.140625 92.140625 C 114.449219 92.515625 113.765625 92.914062 113.082031 93.308594 C 112.40625 93.714844 111.734375 94.125 111.070312 94.554688 C 109.738281 95.394531 108.5 96.269531 107.417969 97.203125 C 106.886719 97.679688 106.394531 98.164062 105.960938 98.671875 C 105.519531 99.1875 105.160156 99.714844 104.835938 100.28125 C 104.175781 101.445312 103.660156 103.023438 102.769531 104.734375 C 100.894531 108.25 97.597656 110.8125 93.894531 111.78125 C 92.96875 112.003906 92.023438 112.179688 91.070312 112.21875 C 90.832031 112.242188 90.589844 112.222656 90.351562 112.226562 C 90.113281 112.222656 89.878906 112.226562 89.640625 112.203125 L 88.929688 112.140625 C 88.703125 112.113281 88.476562 112.082031 88.265625 112.046875 C 87.402344 111.914062 86.625 111.753906 85.894531 111.671875 C 85.535156 111.632812 85.1875 111.613281 84.863281 111.621094 C 84.546875 111.640625 84.253906 111.6875 83.988281 111.765625 C 83.726562 111.847656 83.503906 111.980469 83.285156 112.144531 C 83.078125 112.308594 82.886719 112.546875 82.707031 112.84375 C 82.34375 113.429688 82.074219 114.230469 81.625 115.050781 C 81.515625 115.257812 81.386719 115.464844 81.246094 115.667969 C 81.179688 115.769531 81.066406 115.898438 80.976562 116.003906 C 80.878906 116.109375 80.773438 116.203125 80.667969 116.296875 C 80.230469 116.644531 79.753906 116.875 79.242188 117.007812 C 78.726562 117.136719 78.171875 117.171875 77.574219 116.996094 C 77.277344 116.894531 76.964844 116.738281 76.726562 116.46875 C 76.597656 116.34375 76.511719 116.191406 76.429688 116.039062 C 76.347656 115.886719 76.3125 115.726562 76.265625 115.570312 L 77.6875 115.660156 L 76.871094 117.894531 C 76.613281 118.644531 76.34375 119.390625 76.101562 120.144531 C 75.597656 121.648438 75.136719 123.167969 74.695312 124.695312 C 74.480469 125.457031 74.28125 126.222656 74.003906 127.050781 C 73.71875 127.863281 73.347656 128.734375 72.695312 129.53125 C 72.386719 129.917969 71.949219 130.324219 71.472656 130.617188 C 70.996094 130.914062 70.472656 131.132812 69.902344 131.261719 C 69.332031 131.382812 68.707031 131.414062 68.050781 131.277344 C 67.398438 131.144531 66.710938 130.816406 66.179688 130.300781 L 65.34375 129.492188 L 66.003906 128.105469 C 66.199219 127.703125 66.242188 127.328125 66.191406 126.910156 C 66.128906 126.496094 65.960938 126.039062 65.6875 125.601562 C 65.144531 124.722656 64.210938 123.96875 63.296875 123.644531 C 63.070312 123.558594 62.839844 123.511719 62.621094 123.480469 C 62.507812 123.457031 62.410156 123.457031 62.285156 123.449219 C 62.148438 123.453125 62.011719 123.453125 61.875 123.453125 C 61.320312 123.488281 60.765625 123.613281 60.207031 123.808594 C 59.652344 124 59.097656 124.292969 58.566406 124.648438 C 58.03125 125.007812 57.503906 125.414062 57.015625 125.882812 C 56.53125 126.359375 56.058594 126.863281 55.625 127.410156 L 55.304688 127.832031 L 55 128.257812 C 54.792969 128.546875 54.585938 128.867188 54.375 129.191406 C 53.957031 129.84375 53.515625 130.527344 53.011719 131.214844 C 52.515625 131.90625 51.929688 132.59375 51.222656 133.207031 C 51.050781 133.363281 50.851562 133.5 50.671875 133.648438 C 50.46875 133.777344 50.277344 133.917969 50.0625 134.03125 C 49.851562 134.148438 49.640625 134.265625 49.414062 134.355469 C 49.300781 134.402344 49.203125 134.449219 49.074219 134.496094 C 48.941406 134.542969 48.8125 134.589844 48.679688 134.621094 C 47.613281 134.886719 46.585938 134.722656 45.71875 134.355469 C 44.847656 133.980469 44.089844 133.382812 43.585938 132.574219 C 43.339844 132.167969 43.171875 131.691406 43.171875 131.203125 C 43.15625 130.722656 43.324219 130.257812 43.570312 129.902344 L 44.007812 130.109375 " fill-opacity="1" fill-rule="nonzero"/></g></svg>