<svg xmlns="http://www.w3.org/2000/svg" xmlns:xlink="http://www.w3.org/1999/xlink" width="350" zoomAndPan="magnify" viewBox="0 0 262.5 82.499998" height="110" preserveAspectRatio="xMidYMid meet" version="1.0"><defs><g/><clipPath id="bf98442c6b"><path d="M 17 42.132812 L 26 42.132812 L 26 51 L 17 51 Z M 17 42.132812 " clip-rule="nonzero"/></clipPath><clipPath id="b93ca2cbcd"><path d="M 25 71 L 34 71 L 34 79.480469 L 25 79.480469 Z M 25 71 " clip-rule="nonzero"/></clipPath><clipPath id="1717a5216c"><path d="M 37 62 L 43.476562 62 L 43.476562 69 L 37 69 Z M 37 62 " clip-rule="nonzero"/></clipPath><clipPath id="7e252ea33d"><path d="M 246 16 L 261.460938 16 L 261.460938 32 L 246 32 Z M 246 16 " clip-rule="nonzero"/></clipPath><clipPath id="805c595c6a"><path d="M 229 29 L 238 29 L 238 37.34375 L 229 37.34375 Z M 229 29 " clip-rule="nonzero"/></clipPath><clipPath id="9a5ddc8ea0"><path d="M 219.492188 20 L 226 20 L 226 27 L 219.492188 27 Z M 219.492188 20 " clip-rule="nonzero"/></clipPath></defs><g clip-path="url(#bf98442c6b)"><path fill="#ff6f00" d="M 19.355469 50.476562 L 23.75 50.476562 C 24.828125 50.476562 25.707031 49.59375 25.707031 48.511719 L 25.707031 44.097656 C 25.707031 43.015625 24.828125 42.132812 23.75 42.132812 L 19.355469 42.132812 C 18.277344 42.132812 17.402344 43.015625 17.402344 44.097656 L 17.402344 48.515625 C 17.402344 49.59375 18.277344 50.476562 19.355469 50.476562 Z M 23.75 42.582031 C 24.582031 42.582031 25.257812 43.261719 25.257812 44.09375 L 25.257812 48.511719 C 25.257812 49.347656 24.582031 50.027344 23.75 50.027344 L 19.355469 50.027344 C 18.523438 50.027344 17.847656 49.347656 17.847656 48.511719 L 17.847656 44.097656 C 17.847656 43.261719 18.523438 42.582031 19.355469 42.582031 Z M 23.75 42.582031 " fill-opacity="1" fill-rule="nonzero"/></g><path fill="#ff6f00" d="M 4.871094 73.710938 L 12.992188 73.710938 C 14.878906 73.710938 16.414062 72.171875 16.414062 70.277344 L 16.414062 62.117188 C 16.414062 60.222656 14.878906 58.679688 12.992188 58.679688 L 4.871094 58.679688 C 2.988281 58.679688 1.453125 60.222656 1.453125 62.117188 L 1.453125 70.277344 C 1.453125 72.171875 2.988281 73.710938 4.871094 73.710938 Z M 12.992188 59.128906 C 14.632812 59.128906 15.964844 60.46875 15.964844 62.117188 L 15.964844 70.277344 C 15.964844 71.921875 14.632812 73.265625 12.992188 73.265625 L 4.871094 73.265625 C 3.234375 73.265625 1.898438 71.925781 1.898438 70.277344 L 1.898438 62.117188 C 1.898438 60.46875 3.230469 59.128906 4.871094 59.128906 Z M 12.992188 59.128906 " fill-opacity="1" fill-rule="nonzero"/><path fill="#ff6f00" d="M 21.773438 64.222656 L 24.652344 64.222656 C 25.398438 64.222656 26.007812 63.609375 26.007812 62.859375 L 26.007812 59.96875 C 26.007812 59.21875 25.398438 58.605469 24.652344 58.605469 L 21.773438 58.605469 C 21.027344 58.605469 20.417969 59.21875 20.417969 59.96875 L 20.417969 62.859375 C 20.417969 63.609375 21.027344 64.222656 21.773438 64.222656 Z M 24.652344 59.058594 C 25.152344 59.058594 25.558594 59.46875 25.558594 59.96875 L 25.558594 62.859375 C 25.558594 63.363281 25.152344 63.773438 24.652344 63.773438 L 21.773438 63.773438 C 21.273438 63.773438 20.867188 63.363281 20.867188 62.859375 L 20.867188 59.96875 C 20.867188 59.46875 21.273438 59.058594 21.773438 59.058594 Z M 24.652344 59.058594 " fill-opacity="1" fill-rule="nonzero"/><g clip-path="url(#b93ca2cbcd)"><path fill="#ff6f00" d="M 27.511719 79.476562 L 31.910156 79.476562 C 32.988281 79.476562 33.863281 78.597656 33.863281 77.515625 L 33.863281 73.097656 C 33.863281 72.015625 32.988281 71.132812 31.910156 71.132812 L 27.511719 71.132812 C 26.433594 71.132812 25.558594 72.015625 25.558594 73.097656 L 25.558594 77.515625 C 25.558594 78.597656 26.433594 79.476562 27.511719 79.476562 Z M 31.910156 71.582031 C 32.738281 71.582031 33.414062 72.261719 33.414062 73.097656 L 33.414062 77.515625 C 33.414062 78.347656 32.738281 79.027344 31.910156 79.027344 L 27.511719 79.027344 C 26.679688 79.027344 26.007812 78.347656 26.007812 77.515625 L 26.007812 73.097656 C 26.007812 72.261719 26.679688 71.582031 27.511719 71.582031 Z M 31.910156 71.582031 " fill-opacity="1" fill-rule="nonzero"/></g><g clip-path="url(#1717a5216c)"><path fill="#ff6f00" d="M 39.222656 68.480469 L 42.101562 68.480469 C 42.847656 68.480469 43.457031 67.871094 43.457031 67.121094 L 43.457031 64.230469 C 43.457031 63.480469 42.847656 62.867188 42.101562 62.867188 L 39.222656 62.867188 C 38.476562 62.867188 37.867188 63.480469 37.867188 64.230469 L 37.867188 67.121094 C 37.867188 67.871094 38.476562 68.480469 39.222656 68.480469 Z M 42.101562 63.316406 C 42.601562 63.316406 43.011719 63.726562 43.011719 64.230469 L 43.011719 67.121094 C 43.011719 67.625 42.601562 68.035156 42.101562 68.035156 L 39.222656 68.035156 C 38.722656 68.035156 38.316406 67.625 38.316406 67.121094 L 38.316406 64.230469 C 38.316406 63.726562 38.722656 63.316406 39.222656 63.316406 Z M 42.101562 63.316406 " fill-opacity="1" fill-rule="nonzero"/></g><g fill="#d83139" fill-opacity="1"><g transform="translate(0.542172, 35.660813)"><g><path d="M 0.796875 0 L 13.28125 0 L 13.28125 -2.546875 L 3.34375 -2.546875 L 3.34375 -7.585938 L 12.027344 -7.585938 L 12.027344 -10.15625 L 3.34375 -10.15625 L 3.34375 -15.152344 L 13.28125 -15.152344 L 13.28125 -17.742188 L 0.796875 -17.742188 Z M 0.796875 0 "/></g></g></g><g fill="#d83139" fill-opacity="1"><g transform="translate(14.618209, 35.660813)"><g><path d="M 0.796875 0 L 3.34375 0 L 3.34375 -13.976562 L 13.859375 0 L 16.785156 0 L 16.785156 -17.742188 L 14.238281 -17.742188 L 14.238281 -3.761719 L 3.722656 -17.742188 L 0.796875 -17.742188 Z M 0.796875 0 "/></g></g></g><g fill="#d83139" fill-opacity="1"><g transform="translate(32.198323, 35.660813)"><g><path d="M 9.597656 -0.078125 C 14.136719 -0.078125 17.960938 -3.605469 18.359375 -8.105469 L 18.457031 -9.476562 L 12.40625 -9.476562 L 12.40625 -6.929688 L 15.511719 -6.929688 L 15.492188 -6.828125 C 14.617188 -4.320312 12.246094 -2.628906 9.597656 -2.628906 C 6.152344 -2.628906 3.34375 -5.4375 3.34375 -8.882812 C 3.34375 -12.304688 6.152344 -15.113281 9.597656 -15.113281 C 11.03125 -15.113281 12.425781 -14.617188 13.539062 -13.679688 L 15.171875 -15.671875 C 13.640625 -16.925781 11.589844 -17.664062 9.597656 -17.664062 C 4.738281 -17.664062 0.796875 -13.738281 0.796875 -8.882812 C 0.796875 -4.023438 4.71875 -0.078125 9.597656 -0.078125 Z M 9.597656 -0.078125 "/></g></g></g><g fill="#d83139" fill-opacity="1"><g transform="translate(51.450841, 35.660813)"><g><path d="M 0.796875 0 L 13.28125 0 L 13.28125 -2.546875 L 3.34375 -2.546875 L 3.34375 -17.742188 L 0.796875 -17.742188 Z M 0.796875 0 "/></g></g></g><g fill="#d83139" fill-opacity="1"><g transform="translate(65.526877, 35.660813)"><g><path d="M 0.796875 0 L 6.472656 0 L 6.472656 -2.546875 L 4.917969 -2.546875 L 4.917969 -15.171875 L 6.472656 -15.171875 L 6.472656 -17.742188 L 0.796875 -17.742188 L 0.796875 -15.171875 L 2.351562 -15.171875 L 2.351562 -2.546875 L 0.796875 -2.546875 Z M 0.796875 0 "/></g></g></g><g fill="#d83139" fill-opacity="1"><g transform="translate(72.793852, 35.660813)"><g><path d="M 7.128906 0 C 10.632812 0 13.480469 -2.328125 13.480469 -5.195312 C 13.480469 -7.40625 11.925781 -9.359375 9.71875 -9.9375 C 9.121094 -10.09375 8.285156 -10.214844 7.40625 -10.355469 C 6.332031 -10.515625 5.617188 -10.632812 5.21875 -10.753906 C 4.121094 -11.050781 3.386719 -11.949219 3.386719 -12.984375 C 3.386719 -14.398438 5.058594 -15.589844 7.128906 -15.589844 C 9.121094 -15.589844 10.773438 -14.496094 10.871094 -13.023438 L 13.339844 -14.117188 C 12.683594 -16.507812 10.074219 -18.179688 7.128906 -18.179688 C 3.644531 -18.179688 0.796875 -15.851562 0.796875 -12.984375 C 0.796875 -10.8125 2.328125 -8.882812 4.5 -8.242188 C 5.097656 -8.085938 5.972656 -7.925781 7.007812 -7.785156 C 7.867188 -7.667969 8.621094 -7.527344 9.058594 -7.425781 C 10.117188 -7.148438 10.871094 -6.210938 10.871094 -5.195312 C 10.871094 -3.785156 9.199219 -2.589844 7.128906 -2.589844 C 4.699219 -2.589844 2.867188 -4.222656 3.503906 -5.875 L 0.855469 -5.875 C 0.359375 -2.726562 3.324219 0 7.128906 0 Z M 7.128906 0 "/></g></g></g><g fill="#d83139" fill-opacity="1"><g transform="translate(87.06898, 35.660813)"><g><path d="M 0.796875 0 L 3.34375 0 L 3.34375 -7.585938 L 12.148438 -7.585938 L 12.148438 0 L 14.695312 0 L 14.695312 -17.742188 L 12.148438 -17.742188 L 12.148438 -10.15625 L 3.34375 -10.15625 L 3.34375 -17.742188 L 0.796875 -17.742188 Z M 0.796875 0 "/></g></g></g><g fill="#d83139" fill-opacity="1"><g transform="translate(102.558588, 35.660813)"><g/></g></g><g fill="#d83139" fill-opacity="1"><g transform="translate(114.404758, 35.660813)"><g><path d="M 0.796875 0 L 13.28125 0 L 13.28125 -2.546875 L 3.34375 -2.546875 L 3.34375 -17.742188 L 0.796875 -17.742188 Z M 0.796875 0 "/></g></g></g><g fill="#d83139" fill-opacity="1"><g transform="translate(128.480795, 35.660813)"><g><path d="M 0.796875 0 L 6.472656 0 L 6.472656 -2.546875 L 4.917969 -2.546875 L 4.917969 -15.171875 L 6.472656 -15.171875 L 6.472656 -17.742188 L 0.796875 -17.742188 L 0.796875 -15.171875 L 2.351562 -15.171875 L 2.351562 -2.546875 L 0.796875 -2.546875 Z M 0.796875 0 "/></g></g></g><g fill="#d83139" fill-opacity="1"><g transform="translate(135.74777, 35.660813)"><g><path d="M 5.8125 0 L 8.363281 0 L 8.363281 -15.171875 L 13.339844 -15.171875 L 13.339844 -17.742188 L 0.796875 -17.742188 L 0.796875 -15.171875 L 5.8125 -15.171875 Z M 5.8125 0 "/></g></g></g><g fill="#d83139" fill-opacity="1"><g transform="translate(149.883538, 35.660813)"><g><path d="M 0.796875 0 L 13.28125 0 L 13.28125 -2.546875 L 3.34375 -2.546875 L 3.34375 -7.585938 L 12.027344 -7.585938 L 12.027344 -10.15625 L 3.34375 -10.15625 L 3.34375 -15.152344 L 13.28125 -15.152344 L 13.28125 -17.742188 L 0.796875 -17.742188 Z M 0.796875 0 "/></g></g></g><g fill="#d83139" fill-opacity="1"><g transform="translate(163.959575, 35.660813)"><g><path d="M 2.90625 0 L 5.457031 0 L 5.457031 -7.027344 L 7.707031 -7.027344 L 12.703125 0 L 15.789062 0 L 10.710938 -7.207031 L 10.832031 -7.226562 C 13.140625 -7.84375 14.753906 -9.976562 14.753906 -12.367188 C 14.753906 -15.332031 12.367188 -17.742188 9.417969 -17.742188 L 0.796875 -17.742188 L 0.796875 -15.171875 L 2.90625 -15.171875 Z M 5.457031 -9.597656 L 5.457031 -15.171875 L 9.417969 -15.171875 C 10.953125 -15.171875 12.207031 -13.917969 12.207031 -12.367188 C 12.207031 -10.851562 10.953125 -9.597656 9.417969 -9.597656 Z M 5.457031 -9.597656 "/></g></g></g><g fill="#d83139" fill-opacity="1"><g transform="translate(180.544211, 35.660813)"><g><path d="M 0.796875 0 L 3.503906 0 L 5.355469 -5.375 L 10.992188 -5.375 L 12.863281 0 L 15.570312 0 L 13.699219 -5.375 L 15.570312 -5.375 L 14.675781 -7.925781 L 12.804688 -7.925781 L 9.398438 -17.742188 L 6.910156 -17.742188 Z M 6.234375 -7.925781 L 8.164062 -13.5 L 10.09375 -7.925781 Z M 6.234375 -7.925781 "/></g></g></g><g fill="#d83139" fill-opacity="1"><g transform="translate(196.909847, 35.660813)"><g><path d="M 5.8125 0 L 8.363281 0 L 8.363281 -15.171875 L 13.339844 -15.171875 L 13.339844 -17.742188 L 0.796875 -17.742188 L 0.796875 -15.171875 L 5.8125 -15.171875 Z M 5.8125 0 "/></g></g></g><g fill="#d83139" fill-opacity="1"><g transform="translate(211.045615, 35.660813)"><g><path d="M 8.742188 0.0195312 C 13.121094 0.0195312 16.667969 -3.960938 16.667969 -8.859375 L 16.667969 -17.742188 L 14.117188 -17.742188 L 14.117188 -8.859375 C 14.117188 -5.375 11.6875 -2.527344 8.742188 -2.527344 C 5.773438 -2.527344 3.34375 -5.375 3.34375 -8.859375 L 3.34375 -17.742188 L 0.796875 -17.742188 L 0.796875 -8.859375 C 0.796875 -3.960938 4.359375 0.0195312 8.742188 0.0195312 Z M 8.742188 0.0195312 "/></g></g></g><g fill="#d83139" fill-opacity="1"><g transform="translate(228.506267, 35.660813)"><g><path d="M 2.90625 0 L 5.457031 0 L 5.457031 -7.027344 L 7.707031 -7.027344 L 12.703125 0 L 15.789062 0 L 10.710938 -7.207031 L 10.832031 -7.226562 C 13.140625 -7.84375 14.753906 -9.976562 14.753906 -12.367188 C 14.753906 -15.332031 12.367188 -17.742188 9.417969 -17.742188 L 0.796875 -17.742188 L 0.796875 -15.171875 L 2.90625 -15.171875 Z M 5.457031 -9.597656 L 5.457031 -15.171875 L 9.417969 -15.171875 C 10.953125 -15.171875 12.207031 -13.917969 12.207031 -12.367188 C 12.207031 -10.851562 10.953125 -9.597656 9.417969 -9.597656 Z M 5.457031 -9.597656 "/></g></g></g><g fill="#d83139" fill-opacity="1"><g transform="translate(245.090914, 35.660813)"><g><path d="M 0.796875 0 L 13.28125 0 L 13.28125 -2.546875 L 3.34375 -2.546875 L 3.34375 -7.585938 L 12.027344 -7.585938 L 12.027344 -10.15625 L 3.34375 -10.15625 L 3.34375 -15.152344 L 13.28125 -15.152344 L 13.28125 -17.742188 L 0.796875 -17.742188 Z M 0.796875 0 "/></g></g></g><g fill="#d83139" fill-opacity="1"><g transform="translate(259.156912, 35.660813)"><g/></g></g><path fill="#d83139" d="M 243.613281 8.34375 L 239.214844 8.34375 C 238.140625 8.34375 237.261719 7.460938 237.261719 6.378906 L 237.261719 1.964844 C 237.261719 0.878906 238.140625 0 239.214844 0 L 243.613281 0 C 244.691406 0 245.566406 0.878906 245.566406 1.964844 L 245.566406 6.378906 C 245.566406 7.460938 244.691406 8.34375 243.613281 8.34375 Z M 239.214844 0.449219 C 238.386719 0.449219 237.710938 1.125 237.710938 1.960938 L 237.710938 6.378906 C 237.710938 7.214844 238.386719 7.890625 239.214844 7.890625 L 243.613281 7.890625 C 244.445312 7.890625 245.121094 7.214844 245.121094 6.378906 L 245.121094 1.964844 C 245.121094 1.128906 244.445312 0.449219 243.613281 0.449219 Z M 239.214844 0.449219 " fill-opacity="1" fill-rule="nonzero"/><g clip-path="url(#7e252ea33d)"><path fill="#d83139" d="M 258.097656 31.578125 L 249.972656 31.578125 C 248.089844 31.578125 246.554688 30.035156 246.554688 28.144531 L 246.554688 19.980469 C 246.554688 18.089844 248.089844 16.546875 249.972656 16.546875 L 258.097656 16.546875 C 259.980469 16.546875 261.515625 18.089844 261.515625 19.980469 L 261.515625 28.144531 C 261.515625 30.035156 259.980469 31.578125 258.097656 31.578125 Z M 249.972656 16.996094 C 248.335938 16.996094 247 18.335938 247 19.980469 L 247 28.144531 C 247 29.789062 248.335938 31.128906 249.972656 31.128906 L 258.097656 31.128906 C 259.734375 31.128906 261.070312 29.789062 261.070312 28.144531 L 261.070312 19.980469 C 261.070312 18.335938 259.734375 16.996094 258.097656 16.996094 Z M 249.972656 16.996094 " fill-opacity="1" fill-rule="nonzero"/></g><path fill="#d83139" d="M 241.195312 22.085938 L 238.316406 22.085938 C 237.570312 22.085938 236.960938 21.476562 236.960938 20.726562 L 236.960938 17.835938 C 236.960938 17.085938 237.570312 16.472656 238.316406 16.472656 L 241.195312 16.472656 C 241.941406 16.472656 242.550781 17.085938 242.550781 17.835938 L 242.550781 20.726562 C 242.550781 21.476562 241.941406 22.085938 241.195312 22.085938 Z M 238.316406 16.921875 C 237.816406 16.921875 237.40625 17.332031 237.40625 17.835938 L 237.40625 20.726562 C 237.40625 21.230469 237.816406 21.640625 238.316406 21.640625 L 241.195312 21.640625 C 241.695312 21.640625 242.101562 21.230469 242.101562 20.726562 L 242.101562 17.835938 C 242.101562 17.332031 241.695312 16.921875 241.195312 16.921875 Z M 238.316406 16.921875 " fill-opacity="1" fill-rule="nonzero"/><g clip-path="url(#805c595c6a)"><path fill="#d83139" d="M 235.457031 37.34375 L 231.058594 37.34375 C 229.980469 37.34375 229.105469 36.464844 229.105469 35.378906 L 229.105469 30.964844 C 229.105469 29.878906 229.980469 29 231.058594 29 L 235.457031 29 C 236.535156 29 237.410156 29.878906 237.410156 30.964844 L 237.410156 35.378906 C 237.40625 36.464844 236.535156 37.34375 235.457031 37.34375 Z M 231.058594 29.449219 C 230.226562 29.449219 229.554688 30.128906 229.554688 30.964844 L 229.554688 35.378906 C 229.554688 36.214844 230.226562 36.894531 231.058594 36.894531 L 235.457031 36.894531 C 236.285156 36.894531 236.960938 36.214844 236.960938 35.378906 L 236.960938 30.964844 C 236.960938 30.128906 236.285156 29.449219 235.457031 29.449219 Z M 231.058594 29.449219 " fill-opacity="1" fill-rule="nonzero"/></g><g clip-path="url(#9a5ddc8ea0)"><path fill="#d83139" d="M 223.746094 26.347656 L 220.867188 26.347656 C 220.121094 26.347656 219.511719 25.738281 219.511719 24.988281 L 219.511719 22.097656 C 219.511719 21.34375 220.121094 20.734375 220.867188 20.734375 L 223.746094 20.734375 C 224.492188 20.734375 225.097656 21.34375 225.097656 22.097656 L 225.097656 24.988281 C 225.097656 25.738281 224.492188 26.347656 223.746094 26.347656 Z M 220.867188 21.183594 C 220.367188 21.183594 219.957031 21.59375 219.957031 22.097656 L 219.957031 24.988281 C 219.957031 25.488281 220.367188 25.898438 220.867188 25.898438 L 223.746094 25.898438 C 224.246094 25.898438 224.652344 25.488281 224.652344 24.988281 L 224.652344 22.097656 C 224.652344 21.59375 224.246094 21.183594 223.746094 21.183594 Z M 220.867188 21.183594 " fill-opacity="1" fill-rule="nonzero"/></g><g fill="#d83139" fill-opacity="1"><g transform="translate(11.678323, 66.254537)"><g/></g></g><g fill="#d83139" fill-opacity="1"><g transform="translate(23.086312, 66.254537)"><g/></g></g><g fill="#d83139" fill-opacity="1"><g transform="translate(34.494301, 66.254537)"><g/></g></g><g fill="#d83139" fill-opacity="1"><g transform="translate(45.902291, 66.254537)"><g/></g></g><g fill="#d83139" fill-opacity="1"><g transform="translate(57.310279, 66.254537)"><g/></g></g><g fill="#d83139" fill-opacity="1"><g transform="translate(68.718267, 66.254537)"><g/></g></g><g fill="#d83139" fill-opacity="1"><g transform="translate(80.126259, 66.254537)"><g/></g></g><g fill="#d83139" fill-opacity="1"><g transform="translate(91.53425, 66.254537)"><g/></g></g><g fill="#d83139" fill-opacity="1"><g transform="translate(102.942241, 66.254537)"><g/></g></g><g fill="#ff6f00" fill-opacity="1"><g transform="translate(114.342306, 66.254537)"><g><path d="M 0.796875 0 L 13.28125 0 L 13.28125 -2.546875 L 3.34375 -2.546875 L 3.34375 -17.742188 L 0.796875 -17.742188 Z M 0.796875 0 "/></g></g></g><g fill="#ff6f00" fill-opacity="1"><g transform="translate(127.980161, 66.254537)"><g><path d="M 0.796875 0 L 6.472656 0 L 6.472656 -2.546875 L 4.917969 -2.546875 L 4.917969 -15.171875 L 6.472656 -15.171875 L 6.472656 -17.742188 L 0.796875 -17.742188 L 0.796875 -15.171875 L 2.351562 -15.171875 L 2.351562 -2.546875 L 0.796875 -2.546875 Z M 0.796875 0 "/></g></g></g><g fill="#ff6f00" fill-opacity="1"><g transform="translate(134.808954, 66.254537)"><g><path d="M 0.796875 0 L 3.34375 0 L 3.34375 -13.976562 L 13.859375 0 L 16.785156 0 L 16.785156 -17.742188 L 14.238281 -17.742188 L 14.238281 -3.761719 L 3.722656 -17.742188 L 0.796875 -17.742188 Z M 0.796875 0 "/></g></g></g><g fill="#ff6f00" fill-opacity="1"><g transform="translate(151.950886, 66.254537)"><g><path d="M 9.597656 -0.078125 C 14.136719 -0.078125 17.960938 -3.605469 18.359375 -8.105469 L 18.457031 -9.476562 L 12.40625 -9.476562 L 12.40625 -6.929688 L 15.511719 -6.929688 L 15.492188 -6.828125 C 14.617188 -4.320312 12.246094 -2.628906 9.597656 -2.628906 C 6.152344 -2.628906 3.34375 -5.4375 3.34375 -8.882812 C 3.34375 -12.304688 6.152344 -15.113281 9.597656 -15.113281 C 11.03125 -15.113281 12.425781 -14.617188 13.539062 -13.679688 L 15.171875 -15.671875 C 13.640625 -16.925781 11.589844 -17.664062 9.597656 -17.664062 C 4.738281 -17.664062 0.796875 -13.738281 0.796875 -8.882812 C 0.796875 -4.023438 4.71875 -0.078125 9.597656 -0.078125 Z M 9.597656 -0.078125 "/></g></g></g><g fill="#ff6f00" fill-opacity="1"><g transform="translate(170.76522, 66.254537)"><g><path d="M 8.742188 0.0195312 C 13.121094 0.0195312 16.667969 -3.960938 16.667969 -8.859375 L 16.667969 -17.742188 L 14.117188 -17.742188 L 14.117188 -8.859375 C 14.117188 -5.375 11.6875 -2.527344 8.742188 -2.527344 C 5.773438 -2.527344 3.34375 -5.375 3.34375 -8.859375 L 3.34375 -17.742188 L 0.796875 -17.742188 L 0.796875 -8.859375 C 0.796875 -3.960938 4.359375 0.0195312 8.742188 0.0195312 Z M 8.742188 0.0195312 "/></g></g></g><g fill="#ff6f00" fill-opacity="1"><g transform="translate(187.787688, 66.254537)"><g><path d="M 0.796875 0 L 6.472656 0 L 6.472656 -2.546875 L 4.917969 -2.546875 L 4.917969 -15.171875 L 6.472656 -15.171875 L 6.472656 -17.742188 L 0.796875 -17.742188 L 0.796875 -15.171875 L 2.351562 -15.171875 L 2.351562 -2.546875 L 0.796875 -2.546875 Z M 0.796875 0 "/></g></g></g><g fill="#ff6f00" fill-opacity="1"><g transform="translate(194.616484, 66.254537)"><g><path d="M 7.128906 0 C 10.632812 0 13.480469 -2.328125 13.480469 -5.195312 C 13.480469 -7.40625 11.925781 -9.359375 9.71875 -9.9375 C 9.121094 -10.09375 8.285156 -10.214844 7.40625 -10.355469 C 6.332031 -10.515625 5.617188 -10.632812 5.21875 -10.753906 C 4.121094 -11.050781 3.386719 -11.949219 3.386719 -12.984375 C 3.386719 -14.398438 5.058594 -15.589844 7.128906 -15.589844 C 9.121094 -15.589844 10.773438 -14.496094 10.871094 -13.023438 L 13.339844 -14.117188 C 12.683594 -16.507812 10.074219 -18.179688 7.128906 -18.179688 C 3.644531 -18.179688 0.796875 -15.851562 0.796875 -12.984375 C 0.796875 -10.8125 2.328125 -8.882812 4.5 -8.242188 C 5.097656 -8.085938 5.972656 -7.925781 7.007812 -7.785156 C 7.867188 -7.667969 8.621094 -7.527344 9.058594 -7.425781 C 10.117188 -7.148438 10.871094 -6.210938 10.871094 -5.195312 C 10.871094 -3.785156 9.199219 -2.589844 7.128906 -2.589844 C 4.699219 -2.589844 2.867188 -4.222656 3.503906 -5.875 L 0.855469 -5.875 C 0.359375 -2.726562 3.324219 0 7.128906 0 Z M 7.128906 0 "/></g></g></g><g fill="#ff6f00" fill-opacity="1"><g transform="translate(208.453433, 66.254537)"><g><path d="M 5.8125 0 L 8.363281 0 L 8.363281 -15.171875 L 13.339844 -15.171875 L 13.339844 -17.742188 L 0.796875 -17.742188 L 0.796875 -15.171875 L 5.8125 -15.171875 Z M 5.8125 0 "/></g></g></g><g fill="#ff6f00" fill-opacity="1"><g transform="translate(222.151016, 66.254537)"><g><path d="M 0.796875 0 L 6.472656 0 L 6.472656 -2.546875 L 4.917969 -2.546875 L 4.917969 -15.171875 L 6.472656 -15.171875 L 6.472656 -17.742188 L 0.796875 -17.742188 L 0.796875 -15.171875 L 2.351562 -15.171875 L 2.351562 -2.546875 L 0.796875 -2.546875 Z M 0.796875 0 "/></g></g></g><g fill="#ff6f00" fill-opacity="1"><g transform="translate(228.979806, 66.254537)"><g><path d="M 9.757812 0.0976562 C 11.769531 0.0976562 13.820312 -0.617188 15.414062 -1.890625 L 13.757812 -3.863281 C 12.625 -2.96875 11.191406 -2.449219 9.757812 -2.449219 C 6.210938 -2.449219 3.34375 -5.335938 3.34375 -8.882812 C 3.34375 -12.40625 6.210938 -15.253906 9.757812 -15.253906 C 11.191406 -15.253906 12.625 -14.773438 13.78125 -13.878906 L 15.390625 -15.851562 C 13.78125 -17.105469 11.769531 -17.820312 9.757812 -17.820312 C 4.800781 -17.820312 0.796875 -13.800781 0.796875 -8.882812 C 0.796875 -3.921875 4.800781 0.0976562 9.757812 0.0976562 Z M 9.757812 0.0976562 "/></g></g></g><g fill="#ff6f00" fill-opacity="1"><g transform="translate(244.747974, 66.254537)"><g><path d="M 7.128906 0 C 10.632812 0 13.480469 -2.328125 13.480469 -5.195312 C 13.480469 -7.40625 11.925781 -9.359375 9.71875 -9.9375 C 9.121094 -10.09375 8.285156 -10.214844 7.40625 -10.355469 C 6.332031 -10.515625 5.617188 -10.632812 5.21875 -10.753906 C 4.121094 -11.050781 3.386719 -11.949219 3.386719 -12.984375 C 3.386719 -14.398438 5.058594 -15.589844 7.128906 -15.589844 C 9.121094 -15.589844 10.773438 -14.496094 10.871094 -13.023438 L 13.339844 -14.117188 C 12.683594 -16.507812 10.074219 -18.179688 7.128906 -18.179688 C 3.644531 -18.179688 0.796875 -15.851562 0.796875 -12.984375 C 0.796875 -10.8125 2.328125 -8.882812 4.5 -8.242188 C 5.097656 -8.085938 5.972656 -7.925781 7.007812 -7.785156 C 7.867188 -7.667969 8.621094 -7.527344 9.058594 -7.425781 C 10.117188 -7.148438 10.871094 -6.210938 10.871094 -5.195312 C 10.871094 -3.785156 9.199219 -2.589844 7.128906 -2.589844 C 4.699219 -2.589844 2.867188 -4.222656 3.503906 -5.875 L 0.855469 -5.875 C 0.359375 -2.726562 3.324219 0 7.128906 0 Z M 7.128906 0 "/></g></g></g><g fill="#d83139" fill-opacity="1"><g transform="translate(69.392233, 74.997585)"><g><path d="M 15.882812 0.546875 C 20.464844 0.546875 24.148438 -1.09375 26.289062 -4.429688 C 27.234375 -0.695312 30.070312 0.25 32.660156 0.0976562 L 32.660156 -5.277344 C 30.121094 -5.277344 29.226562 -7.367188 29.226562 -9.90625 L 29.226562 -15.582031 L 32.164062 -15.582031 L 32.164062 -20.015625 L 16.230469 -20.015625 C 13.441406 -20.015625 8.960938 -21.160156 8.960938 -25.144531 C 8.960938 -27.683594 10.753906 -30.570312 16.230469 -30.570312 C 20.066406 -30.570312 23.5 -29.523438 23.5 -25.742188 L 28.726562 -25.742188 C 28.726562 -33.160156 22.253906 -35.300781 16.378906 -35.300781 C 9.757812 -35.300781 3.535156 -32.0625 3.535156 -25.144531 C 3.535156 -22.105469 5.277344 -19.070312 8.414062 -17.824219 C 5.128906 -16.777344 2.640625 -13.492188 2.640625 -10.257812 C 2.640625 -3.085938 8.664062 0.546875 15.882812 0.546875 Z M 16.132812 -4.53125 C 11.601562 -4.53125 8.117188 -6.371094 8.117188 -10.207031 C 8.117188 -12.695312 10.605469 -15.582031 15.933594 -15.582031 L 23.996094 -15.582031 L 23.996094 -9.90625 C 23.996094 -5.824219 18.917969 -4.53125 16.132812 -4.53125 Z M 16.132812 -4.53125 "/></g></g></g></svg>