<svg xmlns="http://www.w3.org/2000/svg" xmlns:xlink="http://www.w3.org/1999/xlink" width="512" zoomAndPan="magnify" viewBox="0 0 384 383.999986" height="512" preserveAspectRatio="xMidYMid meet" version="1.0"><defs><clipPath id="f85080a900"><path d="M 119 38.398438 L 217 38.398438 L 217 320 L 119 320 Z M 119 38.398438 " clip-rule="nonzero"/></clipPath><clipPath id="0514567b4a"><path d="M 134 192 L 349 192 L 349 327.898438 L 134 327.898438 Z M 134 192 " clip-rule="nonzero"/></clipPath></defs><rect x="-38.4" width="460.8" fill="#ffffff" y="-38.399999" height="460.799983" fill-opacity="1"/><rect x="-38.4" width="460.8" fill="#ffffff" y="-38.399999" height="460.799983" fill-opacity="1"/><rect x="-38.4" width="460.8" fill="#db343c" y="-38.399999" height="460.799983" fill-opacity="1"/><g clip-path="url(#f85080a900)"><path fill="#ffffff" d="M 213.558594 84.949219 C 212.878906 78.519531 212.148438 72.011719 209.859375 65.964844 C 206.335938 56.648438 199.140625 48.367188 198.988281 38.402344 C 197.832031 45.25 173.789062 67.609375 165.0625 124.796875 C 165.0625 125.324219 164.539062 125.855469 164.011719 125.855469 C 160.847656 125.324219 160.324219 119.511719 157.160156 121.097656 C 155.578125 125.324219 155.578125 129.550781 154 133.777344 C 149.257812 145.925781 142.933594 157.015625 138.71875 169.164062 C 134.503906 181.839844 133.449219 195.574219 140.660156 206.933594 C 136.027344 201.316406 132.699219 194.632812 131 187.546875 C 127.042969 191.199219 124.886719 196.433594 124.152344 201.699219 C 122.625 212.65625 126.5 224.351562 129.804688 234.664062 C 131.53125 240.066406 133.496094 245.394531 135.6875 250.628906 C 137.09375 253.984375 140.128906 262.074219 144.613281 262.449219 C 144.613281 262.449219 146.144531 262.449219 146.144531 260.917969 C 164.28125 222.164062 190.511719 147.421875 198.148438 64.648438 C 198.917969 154.078125 164.28125 236.460938 151.390625 264.625 C 147.910156 275.582031 142.296875 285.714844 136.714844 295.757812 C 133.085938 302.292969 129.121094 309.175781 122.1875 312.292969 C 121.144531 312.761719 120.191406 313.449219 119.613281 314.4375 C 117.351562 318.308594 122.316406 320.574219 125.222656 319.039062 C 127.648438 317.753906 128.902344 315.050781 130.167969 312.609375 C 146.144531 294.648438 150.730469 263.984375 175.207031 265.515625 C 181.246094 262.867188 185.429688 244.632812 188.023438 238.558594 C 199.40625 211.933594 210.90625 184.90625 214.832031 156.207031 C 218.058594 132.613281 216.050781 108.636719 213.558594 84.949219 " fill-opacity="1" fill-rule="nonzero"/></g><g clip-path="url(#0514567b4a)"><path fill="#ffffff" d="M 136.046875 317.046875 C 135.855469 317.835938 135.84375 318.601562 136.085938 319.265625 C 136.3125 319.933594 136.742188 320.503906 137.246094 321 C 138.292969 321.980469 139.738281 322.5625 141.136719 322.808594 C 142.546875 323.035156 143.953125 322.886719 144.917969 322.34375 C 145.042969 322.289062 145.148438 322.207031 145.265625 322.140625 C 145.382812 322.066406 145.539062 321.945312 145.675781 321.855469 C 145.96875 321.671875 146.230469 321.4375 146.492188 321.21875 C 146.761719 321 146.996094 320.726562 147.25 320.492188 C 147.484375 320.21875 147.734375 319.980469 147.957031 319.683594 C 148.867188 318.550781 149.660156 317.238281 150.417969 315.792969 C 151.171875 314.34375 151.886719 312.785156 152.675781 311.167969 C 153.070312 310.347656 153.464844 309.523438 153.929688 308.664062 C 154.386719 307.792969 154.894531 306.953125 155.417969 306.117188 C 156.484375 304.457031 157.65625 302.839844 159 301.332031 C 161.6875 298.339844 164.960938 295.601562 169.066406 293.882812 C 171.105469 293.015625 173.332031 292.457031 175.621094 292.242188 L 177.347656 292.164062 C 177.953125 292.167969 178.625 292.1875 179.242188 292.273438 C 180.503906 292.421875 181.730469 292.722656 182.875 293.144531 C 185.183594 293.976562 187.214844 295.265625 188.9375 296.839844 C 189.8125 297.617188 190.597656 298.484375 191.296875 299.425781 C 192 300.359375 192.632812 301.359375 193.160156 302.429688 C 194.183594 304.582031 194.875 307.035156 194.792969 309.65625 C 194.746094 310.957031 194.523438 312.292969 194.070312 313.546875 C 193.628906 314.800781 192.980469 315.972656 192.207031 316.992188 L 191.816406 312.011719 C 191.859375 312.148438 191.929688 312.308594 192.191406 312.464844 C 192.449219 312.617188 192.871094 312.730469 193.359375 312.734375 C 193.847656 312.734375 194.386719 312.632812 194.886719 312.453125 C 195.394531 312.265625 195.8125 312.042969 196.34375 311.597656 C 197.34375 310.777344 198.238281 309.535156 199.003906 308.078125 C 199.785156 306.640625 200.460938 304.957031 201.191406 303.304688 C 202.59375 299.984375 203.960938 296.648438 205.226562 293.285156 C 205.878906 291.601562 206.46875 289.902344 207.09375 288.214844 L 208.855469 283.113281 L 210.195312 279.230469 L 212.0625 283.316406 C 212.148438 283.503906 212.195312 283.65625 212.308594 283.726562 C 212.386719 283.832031 212.558594 283.890625 212.761719 283.964844 C 213.214844 284.082031 213.898438 284.023438 214.527344 283.808594 C 215.167969 283.601562 215.785156 283.246094 216.21875 282.808594 L 216.503906 282.476562 C 216.574219 282.34375 216.644531 282.28125 216.734375 282.113281 C 216.917969 281.78125 217.089844 281.441406 217.246094 281.066406 C 217.882812 279.5625 218.28125 277.746094 219.136719 275.726562 C 219.570312 274.722656 220.160156 273.667969 220.992188 272.703125 C 221.832031 271.769531 222.847656 270.949219 223.972656 270.375 C 225.09375 269.808594 226.253906 269.445312 227.386719 269.207031 C 228.507812 268.992188 229.59375 268.882812 230.652344 268.824219 C 232.734375 268.734375 234.695312 268.816406 236.472656 268.832031 C 236.929688 268.835938 237.347656 268.832031 237.769531 268.820312 L 238.96875 268.738281 C 239.363281 268.730469 239.761719 268.652344 240.152344 268.597656 C 240.550781 268.53125 240.945312 268.511719 241.332031 268.40625 C 242.898438 268.125 244.421875 267.648438 245.898438 267.089844 C 251.769531 264.710938 256.761719 260.265625 259.175781 254.78125 C 260.460938 251.9375 261.386719 248.277344 263.296875 244.230469 C 264.273438 242.195312 265.511719 240.246094 266.871094 238.492188 C 268.226562 236.730469 269.722656 235.140625 271.289062 233.699219 C 274.410156 230.808594 277.78125 228.507812 281.09375 226.4375 C 284.429688 224.402344 287.839844 222.480469 291.386719 220.820312 C 298.425781 217.417969 305.855469 214.832031 313.449219 213.058594 C 321.027344 211.332031 328.152344 210.519531 334.445312 207.785156 C 335.976562 207.125 337.464844 206.304688 338.859375 205.332031 C 340.25 204.355469 341.582031 203.265625 342.746094 202.007812 C 343.902344 200.742188 344.9375 199.347656 345.734375 197.796875 C 346.519531 196.246094 347.09375 194.546875 347.328125 192.734375 L 348.414062 192.707031 C 349.089844 196.605469 348.007812 200.832031 345.917969 204.332031 C 343.847656 207.882812 340.878906 210.847656 337.429688 213.171875 C 334.035156 215.464844 330.308594 217.085938 326.667969 218.441406 C 323.015625 219.789062 319.410156 220.882812 316.019531 222.066406 C 309.257812 224.441406 302.734375 227.40625 296.476562 230.828125 C 294.914062 231.683594 293.378906 232.589844 291.835938 233.480469 C 290.308594 234.402344 288.789062 235.339844 287.300781 236.316406 C 284.292969 238.222656 281.496094 240.207031 279.0625 242.328125 C 277.859375 243.40625 276.75 244.511719 275.769531 245.664062 C 274.78125 246.832031 273.96875 248.03125 273.234375 249.320312 C 271.746094 251.957031 270.585938 255.546875 268.574219 259.425781 C 264.347656 267.414062 256.910156 273.222656 248.5625 275.425781 C 246.46875 275.933594 244.34375 276.332031 242.1875 276.417969 C 241.65625 276.472656 241.109375 276.433594 240.574219 276.441406 C 240.035156 276.429688 239.5 276.441406 238.960938 276.382812 L 237.359375 276.246094 C 236.847656 276.183594 236.339844 276.109375 235.859375 276.03125 C 233.921875 275.726562 232.164062 275.363281 230.519531 275.175781 C 229.703125 275.089844 228.921875 275.046875 228.191406 275.066406 C 227.476562 275.109375 226.816406 275.210938 226.21875 275.390625 C 225.632812 275.574219 225.125 275.875 224.632812 276.25 C 224.160156 276.628906 223.730469 277.167969 223.332031 277.839844 C 222.507812 279.171875 221.902344 280.992188 220.886719 282.855469 C 220.636719 283.324219 220.351562 283.792969 220.035156 284.253906 C 219.878906 284.484375 219.628906 284.773438 219.429688 285.015625 C 219.203125 285.253906 218.964844 285.464844 218.726562 285.679688 C 217.746094 286.46875 216.667969 286.996094 215.511719 287.292969 C 214.351562 287.582031 213.101562 287.667969 211.753906 287.273438 C 211.085938 287.039062 210.378906 286.683594 209.84375 286.070312 C 209.550781 285.792969 209.359375 285.441406 209.167969 285.097656 C 208.988281 284.75 208.90625 284.390625 208.796875 284.03125 L 212.007812 284.234375 L 210.167969 289.308594 C 209.589844 291.015625 208.980469 292.707031 208.429688 294.421875 C 207.292969 297.835938 206.257812 301.285156 205.261719 304.75 C 204.769531 306.484375 204.324219 308.222656 203.695312 310.097656 C 203.054688 311.941406 202.214844 313.917969 200.75 315.730469 C 200.054688 316.605469 199.066406 317.535156 197.988281 318.195312 C 196.914062 318.871094 195.734375 319.367188 194.449219 319.65625 C 193.164062 319.933594 191.753906 320.007812 190.273438 319.699219 C 188.800781 319.398438 187.25 318.644531 186.050781 317.476562 L 184.164062 315.640625 L 185.660156 312.492188 C 186.09375 311.582031 186.191406 310.726562 186.082031 309.78125 C 185.9375 308.835938 185.5625 307.800781 184.941406 306.8125 C 183.71875 304.816406 181.617188 303.105469 179.554688 302.367188 C 179.039062 302.167969 178.523438 302.066406 178.027344 301.988281 C 177.769531 301.941406 177.550781 301.933594 177.273438 301.917969 C 176.960938 301.929688 176.652344 301.933594 176.339844 301.933594 C 175.09375 302.007812 173.84375 302.296875 172.585938 302.738281 C 171.328125 303.175781 170.082031 303.832031 168.882812 304.648438 C 167.675781 305.457031 166.492188 306.382812 165.386719 307.449219 C 164.292969 308.527344 163.226562 309.675781 162.246094 310.917969 L 161.523438 311.867188 L 160.835938 312.84375 C 160.371094 313.492188 159.902344 314.226562 159.429688 314.957031 C 158.488281 316.4375 157.496094 317.996094 156.359375 319.558594 C 155.238281 321.121094 153.914062 322.683594 152.320312 324.074219 C 151.9375 324.429688 151.488281 324.746094 151.078125 325.074219 C 150.621094 325.375 150.1875 325.691406 149.703125 325.949219 C 149.226562 326.214844 148.753906 326.476562 148.242188 326.683594 C 147.984375 326.792969 147.761719 326.902344 147.472656 327.003906 C 147.175781 327.109375 146.886719 327.21875 146.585938 327.289062 C 144.175781 327.894531 141.863281 327.515625 139.90625 326.683594 C 137.945312 325.835938 136.230469 324.476562 135.097656 322.636719 C 134.542969 321.714844 134.164062 320.636719 134.167969 319.53125 C 134.132812 318.433594 134.507812 317.382812 135.066406 316.570312 L 136.046875 317.046875 " fill-opacity="1" fill-rule="nonzero"/></g></svg>