<svg xmlns="http://www.w3.org/2000/svg" xmlns:xlink="http://www.w3.org/1999/xlink" width="200" zoomAndPan="magnify" viewBox="0 0 150 149.999998" height="200" preserveAspectRatio="xMidYMid meet" version="1.0"><defs><clipPath id="e518519499"><path d="M 23 79 L 135.75 79 L 135.75 150 L 23 150 Z M 23 79 " clip-rule="nonzero"/></clipPath></defs><path fill="#f5f5f5" d="M 65.132812 24.117188 C 64.777344 20.785156 64.398438 17.417969 63.203125 14.28125 C 61.371094 9.457031 57.621094 5.164062 57.542969 0 C 56.9375 3.550781 44.410156 15.132812 39.863281 44.765625 C 39.863281 45.039062 39.589844 45.3125 39.316406 45.3125 C 37.667969 45.039062 37.394531 42.027344 35.746094 42.847656 C 34.921875 45.039062 34.921875 47.226562 34.097656 49.417969 C 31.628906 55.710938 28.335938 61.460938 26.136719 67.753906 C 23.941406 74.320312 23.394531 81.4375 27.148438 87.324219 C 24.734375 84.410156 23 80.949219 22.117188 77.277344 C 20.054688 79.167969 18.929688 81.882812 18.546875 84.613281 C 17.75 90.289062 19.769531 96.347656 21.492188 101.691406 C 22.394531 104.492188 23.417969 107.25 24.558594 109.964844 C 25.289062 111.703125 26.871094 115.894531 29.210938 116.089844 C 29.210938 116.089844 30.007812 116.089844 30.007812 115.292969 C 39.457031 95.214844 53.125 56.488281 57.101562 13.601562 C 57.503906 59.9375 39.457031 102.621094 32.738281 117.214844 C 30.925781 122.894531 28 128.140625 25.09375 133.347656 C 23.203125 136.734375 21.136719 140.300781 17.523438 141.914062 C 16.980469 142.15625 16.484375 142.511719 16.183594 143.023438 C 15.003906 145.03125 17.589844 146.207031 19.105469 145.410156 C 20.371094 144.742188 21.023438 143.34375 21.683594 142.078125 C 30.007812 132.773438 32.398438 116.882812 45.148438 117.675781 C 48.296875 116.304688 50.476562 106.855469 51.828125 103.710938 C 57.757812 89.914062 63.75 75.910156 65.796875 61.039062 C 67.476562 48.8125 66.429688 36.390625 65.132812 24.117188 " fill-opacity="1" fill-rule="nonzero"/><g clip-path="url(#e518519499)"><path fill="#f5f5f5" d="M 24.746094 144.375 C 24.648438 144.785156 24.640625 145.183594 24.765625 145.527344 C 24.882812 145.875 25.105469 146.167969 25.371094 146.425781 C 25.914062 146.933594 26.667969 147.234375 27.398438 147.363281 C 28.132812 147.476562 28.863281 147.402344 29.367188 147.121094 C 29.433594 147.09375 29.488281 147.050781 29.546875 147.015625 C 29.609375 146.976562 29.691406 146.914062 29.761719 146.867188 C 29.914062 146.773438 30.050781 146.652344 30.1875 146.539062 C 30.328125 146.425781 30.449219 146.285156 30.582031 146.164062 C 30.707031 146.019531 30.835938 145.898438 30.953125 145.742188 C 31.425781 145.15625 31.839844 144.476562 32.234375 143.726562 C 32.625 142.976562 33 142.167969 33.410156 141.328125 C 33.617188 140.90625 33.820312 140.480469 34.0625 140.03125 C 34.300781 139.582031 34.566406 139.148438 34.839844 138.710938 C 35.394531 137.851562 36.003906 137.015625 36.703125 136.234375 C 38.105469 134.683594 39.8125 133.265625 41.949219 132.375 C 43.011719 131.925781 44.171875 131.636719 45.367188 131.523438 L 46.265625 131.484375 C 46.578125 131.484375 46.929688 131.496094 47.253906 131.539062 C 47.910156 131.617188 48.546875 131.773438 49.144531 131.992188 C 50.347656 132.421875 51.40625 133.09375 52.304688 133.90625 C 52.761719 134.308594 53.167969 134.757812 53.53125 135.246094 C 53.898438 135.730469 54.230469 136.246094 54.503906 136.804688 C 55.039062 137.917969 55.398438 139.1875 55.355469 140.546875 C 55.332031 141.222656 55.214844 141.914062 54.980469 142.5625 C 54.746094 143.214844 54.410156 143.820312 54.007812 144.347656 L 53.804688 141.769531 C 53.824219 141.839844 53.863281 141.921875 54 142.003906 C 54.132812 142.082031 54.351562 142.140625 54.605469 142.140625 C 54.863281 142.144531 55.144531 142.089844 55.40625 141.996094 C 55.667969 141.898438 55.886719 141.78125 56.164062 141.554688 C 56.683594 141.128906 57.148438 140.484375 57.546875 139.730469 C 57.957031 138.984375 58.308594 138.113281 58.6875 137.257812 C 59.421875 135.535156 60.132812 133.808594 60.792969 132.0625 C 61.132812 131.191406 61.4375 130.3125 61.761719 129.4375 L 62.683594 126.792969 L 63.378906 124.78125 L 64.355469 126.898438 C 64.398438 126.996094 64.421875 127.074219 64.480469 127.113281 C 64.519531 127.167969 64.609375 127.195312 64.71875 127.234375 C 64.953125 127.296875 65.308594 127.265625 65.636719 127.15625 C 65.972656 127.046875 66.292969 126.863281 66.519531 126.636719 L 66.667969 126.464844 C 66.703125 126.394531 66.738281 126.363281 66.785156 126.277344 C 66.882812 126.105469 66.972656 125.925781 67.054688 125.734375 C 67.386719 124.953125 67.59375 124.011719 68.039062 122.96875 C 68.265625 122.449219 68.574219 121.902344 69.007812 121.402344 C 69.445312 120.917969 69.972656 120.492188 70.558594 120.195312 C 71.140625 119.898438 71.746094 119.710938 72.335938 119.589844 C 72.921875 119.476562 73.488281 119.421875 74.039062 119.390625 C 75.125 119.34375 76.144531 119.386719 77.074219 119.394531 C 77.308594 119.398438 77.527344 119.394531 77.746094 119.390625 L 78.371094 119.347656 C 78.578125 119.34375 78.785156 119.300781 78.988281 119.273438 C 79.195312 119.238281 79.402344 119.230469 79.601562 119.175781 C 80.417969 119.027344 81.214844 118.78125 81.984375 118.492188 C 85.042969 117.257812 87.644531 114.957031 88.902344 112.117188 C 89.570312 110.640625 90.054688 108.746094 91.046875 106.648438 C 91.558594 105.59375 92.203125 104.582031 92.910156 103.675781 C 93.617188 102.761719 94.394531 101.9375 95.210938 101.191406 C 96.839844 99.691406 98.59375 98.503906 100.320312 97.429688 C 102.058594 96.375 103.835938 95.378906 105.683594 94.519531 C 109.351562 92.753906 113.222656 91.414062 117.179688 90.496094 C 121.128906 89.601562 124.839844 89.179688 128.117188 87.765625 C 128.917969 87.421875 129.691406 86.996094 130.417969 86.492188 C 131.144531 85.988281 131.839844 85.421875 132.445312 84.769531 C 133.046875 84.117188 133.585938 83.394531 134.003906 82.589844 C 134.410156 81.785156 134.710938 80.90625 134.832031 79.964844 L 135.398438 79.953125 C 135.75 81.972656 135.1875 84.164062 134.097656 85.972656 C 133.019531 87.8125 131.472656 89.351562 129.675781 90.554688 C 127.90625 91.742188 125.964844 92.582031 124.066406 93.285156 C 122.164062 93.984375 120.285156 94.550781 118.519531 95.164062 C 114.996094 96.394531 111.597656 97.929688 108.335938 99.703125 C 107.523438 100.148438 106.722656 100.617188 105.917969 101.078125 C 105.121094 101.554688 104.332031 102.039062 103.554688 102.546875 C 101.988281 103.535156 100.53125 104.5625 99.261719 105.664062 C 98.636719 106.21875 98.058594 106.792969 97.546875 107.390625 C 97.03125 107.996094 96.609375 108.617188 96.226562 109.285156 C 95.449219 110.652344 94.847656 112.511719 93.796875 114.523438 C 91.59375 118.660156 87.71875 121.671875 83.371094 122.808594 C 82.28125 123.074219 81.171875 123.28125 80.050781 123.324219 C 79.773438 123.351562 79.488281 123.332031 79.207031 123.335938 C 78.925781 123.332031 78.648438 123.339844 78.367188 123.308594 L 77.535156 123.234375 C 77.265625 123.203125 77.003906 123.164062 76.753906 123.125 C 75.742188 122.96875 74.828125 122.777344 73.96875 122.683594 C 73.542969 122.636719 73.136719 122.613281 72.757812 122.625 C 72.382812 122.644531 72.039062 122.699219 71.726562 122.792969 C 71.421875 122.890625 71.160156 123.042969 70.902344 123.238281 C 70.65625 123.433594 70.433594 123.714844 70.222656 124.0625 C 69.796875 124.753906 69.480469 125.695312 68.949219 126.660156 C 68.820312 126.902344 68.671875 127.148438 68.507812 127.386719 C 68.425781 127.503906 68.296875 127.652344 68.191406 127.78125 C 68.074219 127.902344 67.949219 128.015625 67.824219 128.125 C 67.316406 128.535156 66.753906 128.804688 66.148438 128.960938 C 65.546875 129.109375 64.894531 129.15625 64.191406 128.949219 C 63.84375 128.828125 63.476562 128.644531 63.195312 128.328125 C 63.042969 128.183594 62.945312 128 62.84375 127.824219 C 62.75 127.640625 62.707031 127.457031 62.652344 127.269531 L 64.324219 127.375 L 63.367188 130.003906 C 63.0625 130.886719 62.746094 131.765625 62.460938 132.652344 C 61.867188 134.421875 61.328125 136.210938 60.808594 138.007812 C 60.554688 138.902344 60.320312 139.804688 59.992188 140.777344 C 59.660156 141.730469 59.222656 142.757812 58.457031 143.695312 C 58.097656 144.148438 57.582031 144.628906 57.019531 144.972656 C 56.460938 145.320312 55.84375 145.578125 55.175781 145.726562 C 54.507812 145.875 53.773438 145.910156 53 145.75 C 52.234375 145.59375 51.425781 145.203125 50.800781 144.601562 L 49.816406 143.648438 L 50.597656 142.015625 C 50.820312 141.546875 50.875 141.101562 50.816406 140.613281 C 50.742188 140.121094 50.542969 139.585938 50.222656 139.074219 C 49.582031 138.039062 48.488281 137.152344 47.414062 136.769531 C 47.148438 136.667969 46.878906 136.613281 46.617188 136.574219 C 46.484375 136.550781 46.371094 136.546875 46.226562 136.539062 C 46.0625 136.542969 45.902344 136.546875 45.742188 136.546875 C 45.089844 136.582031 44.441406 136.734375 43.785156 136.960938 C 43.128906 137.1875 42.480469 137.53125 41.855469 137.953125 C 41.226562 138.371094 40.609375 138.851562 40.03125 139.40625 C 39.464844 139.960938 38.90625 140.558594 38.398438 141.203125 L 38.019531 141.695312 L 37.664062 142.199219 C 37.417969 142.535156 37.175781 142.914062 36.929688 143.292969 C 36.4375 144.0625 35.921875 144.867188 35.328125 145.675781 C 34.746094 146.488281 34.054688 147.296875 33.226562 148.019531 C 33.023438 148.203125 32.792969 148.367188 32.578125 148.535156 C 32.339844 148.691406 32.113281 148.855469 31.859375 148.988281 C 31.613281 149.125 31.367188 149.261719 31.101562 149.371094 C 30.964844 149.425781 30.851562 149.480469 30.699219 149.535156 C 30.546875 149.589844 30.394531 149.648438 30.238281 149.683594 C 28.980469 149.996094 27.777344 149.800781 26.757812 149.367188 C 25.734375 148.929688 24.839844 148.226562 24.25 147.273438 C 23.960938 146.796875 23.765625 146.238281 23.765625 145.664062 C 23.75 145.09375 23.945312 144.550781 24.234375 144.128906 L 24.746094 144.375 " fill-opacity="1" fill-rule="nonzero"/></g></svg>